# xmcd
#
# Track frame offsets:
#	150
#	15463
#	37095
#	51905
#	67620
#	85568
#	102045
#	113725
#	131735
#	152230
#
# Disc length: 2197 seconds
#
# Revision: 2
# Processed by: cddbd v1.5.2PL0 Copyright (c) Steve Scherf et al.
# Submitted via: EasyCDDAExtractor 15.3.0.1
#
DISCID=7308930a
DTITLE=Rocio Durcal - Canta Lo Romantico De Juan Gabriel
DYEAR=1982
DGENRE=Latin
TTITLE0=Tenias Que Ser Tan Cruel
TTITLE1=Frente A Frente
TTITLE2=Yo Te Perdono
TTITLE3=El Mas Querido
TTITLE4=Una Oracion
TTITLE5=Tu Que Fuiste
TTITLE6=Olvidemonos
TTITLE7=Solo Tuya
TTITLE8=Por Que Fue Que Te Ame
TTITLE9=Cuando Te Vayas
EXTD=
EXTT0=
EXTT1=
EXTT2=
EXTT3=
EXTT4=
EXTT5=
EXTT6=
EXTT7=
EXTT8=
EXTT9=
PLAYORDER=
